<svg width="193" height="111" viewBox="0 0 193 111" fill="none" xmlns="http://www.w3.org/2000/svg">
<g clip-path="url(#clip0_2_2)">
<path d="M0.668409 0.589996H24.72C28.78 0.589996 31.22 1.72 33.01 4.91L56.5 44.31L80.82 5.9C82.99 2.24 85.75 0.589996 89.66 0.589996H103.13C109.77 0.589996 113.18 4.8 112.11 8.53L73 72L77.99 80.56L96.47 50.72L114.37 80.56L119.5 72C118 69.5 119 71.1 117.5 68.6L110.5 57L103.81 45.97C102.3 43.55 102.12 42.6 103.77 39.86L118.98 16.93L136.69 44.31L160.48 5.45C162.41 2.19 164.66 0.589996 168.72 0.589996H192.82L129.96 104.69C127.5 108.4 124.97 110.4 120.09 110.4H116.6C112.73 110.4 111 109 108.06 105.38L96.47 87.95L90.77 96.32L85.07 104.69C83 107.5 80.37 110.4 75.73 110.4H73.41C68.77 110.4 67 109.5 63.97 104.69L1.5 2L0.668409 0.589996Z" fill="white"/>
</g>
<defs>
<clipPath id="clip0_2_2">
<rect width="193" height="111" fill="white"/>
</clipPath>
</defs>
</svg>
