<?xml version="1.0" encoding="UTF-8"?>
<!DOCTYPE svg PUBLIC "-//W3C//DTD SVG 1.1//EN" "http://www.w3.org/Graphics/SVG/1.1/DTD/svg11.dtd">
<svg xmlns="http://www.w3.org/2000/svg" version="1.1" width="383px" height="220px" style="shape-rendering:geometricPrecision; text-rendering:geometricPrecision; image-rendering:optimizeQuality; fill-rule:evenodd; clip-rule:evenodd" xmlns:xlink="http://www.w3.org/1999/xlink">
<g><path style="opacity:0.992" fill="#f0f0f0" d="M 0.5,-0.5 C 18.1667,-0.5 35.8333,-0.5 53.5,-0.5C 58.1832,1.77289 62.0165,5.10623 65,9.5C 80.3333,34.8333 95.6667,60.1667 111,85.5C 126.095,60.3003 141.429,35.3003 157,10.5C 160.095,5.90182 163.928,2.23515 168.5,-0.5C 183.5,-0.5 198.5,-0.5 213.5,-0.5C 216.171,1.93408 219.004,4.26741 222,6.5C 223.721,9.31541 224.388,12.3154 224,15.5C 197.947,56.5352 171.947,97.5352 146,138.5C 145.333,140.5 145.333,142.5 146,144.5C 148.403,148.968 151.07,153.301 154,157.5C 166.36,138.482 178.694,119.482 191,100.5C 203.306,119.482 215.64,138.482 228,157.5C 230.416,152.999 233.083,148.666 236,144.5C 236.667,142.5 236.667,140.5 236,138.5C 224.497,120.979 213.664,103.146 203.5,85C 203.796,83.1118 204.296,81.2784 205,79.5C 213.834,66.503 222.167,53.1697 230,39.5C 231.938,36.6105 234.105,33.9438 236.5,31.5C 247.564,49.2844 258.898,66.951 270.5,84.5C 285.839,60.4907 300.673,36.1574 315,11.5C 316.667,9.16667 318.333,6.83333 320,4.5C 322.352,2.96973 324.519,1.30307 326.5,-0.5C 345.167,-0.5 363.833,-0.5 382.5,-0.5C 382.5,1.16667 382.5,2.83333 382.5,4.5C 341.781,70.4109 301.614,136.744 262,203.5C 259.217,207.951 256.05,212.117 252.5,216C 249.541,217.604 246.541,218.771 243.5,219.5C 238.833,219.5 234.167,219.5 229.5,219.5C 224.722,219.03 220.556,217.03 217,213.5C 208.321,200.133 199.654,186.8 191,173.5C 182.284,188.212 172.784,202.378 162.5,216C 159.224,217.692 155.891,218.859 152.5,219.5C 148.167,219.5 143.833,219.5 139.5,219.5C 131.899,217.76 126.066,213.427 122,206.5C 86.3942,147.615 51.0608,88.6146 16,29.5C 10.9733,20.7585 5.47326,12.4252 -0.5,4.5C -0.5,3.16667 -0.5,1.83333 -0.5,0.5C 0.166667,0.5 0.5,0.166667 0.5,-0.5 Z"/></g>
</svg>
